# xmcd
#
# Track frame offsets:
#	150
#	20192
#	40452
#	70831
#	87737
#	104070
#	121429
#	140541
#	153194
#	169639
#	188479
#
# Disc length: 2728 seconds
#
# Revision: 0
# Processed by: cddbd v1.5.2PL0 Copyright (c) Steve Scherf et al.
# Submitted via: EasyCDDAExtractor 2011.0.0.0
#
DISCID=9b0aa60b
DTITLE=Quoc Bao - Vang Son Tinh Khuc Quoc Bao vol 2
DYEAR=2000
DGENRE=
TTITLE0=Hong Nhung - Ca dao hong
TTITLE1=Tran Thu Ha - Em ve toc xanh
TTITLE2=Tran Thu Ha - Con hong tren moi
TTITLE3=Thu Phuong - Toc nau moi tram
TTITLE4=Tran Thu Ha - Vang son
TTITLE5=Hong Nhung - Tinh ca nhung
TTITLE6=Quoc Bao - Thien su
TTITLE7=Tran Thu Ha - Bien xua
TTITLE8=Thu Phuong - Tinh khuc tho ngay
TTITLE9=Tran Thu Ha - Vang em
TTITLE10=Tran Manh Tuan - Vang son (bonus)
EXTD=
EXTT0=
EXTT1=
EXTT2=
EXTT3=
EXTT4=
EXTT5=
EXTT6=
EXTT7=
EXTT8=
EXTT9=
EXTT10=
PLAYORDER=
